<svg width="60" height="60" viewBox="0 0 60 60" fill="none" xmlns="http://www.w3.org/2000/svg">
<path d="M22.4125 29.332C23.5335 27.5085 25.8832 26.9624 27.6607 28.1124M27.2251 33.864C29.255 34.422 30.4596 36.5624 29.9157 38.6448M35.7858 19.9374H41.1786L43.9822 15.6874H49.5893M35.2681 29.9999H48.5536M35.7858 40.0624H41.1786L43.9822 44.3124H49.5893M50.0768 44.9999H50.1335C50.603 44.9999 50.9836 44.6193 50.9836 44.1499V44.1499C50.9836 43.6804 50.603 43.2998 50.1335 43.2998H50.0768C49.6073 43.2998 49.2267 43.6804 49.2267 44.1499V44.1499C49.2267 44.6193 49.6073 44.9999 50.0768 44.9999ZM49.4037 30.8374H49.4604C49.9299 30.8374 50.3105 30.4568 50.3105 29.9873V29.9873C50.3105 29.5179 49.9299 29.1373 49.4604 29.1373H49.4037C48.9342 29.1373 48.5536 29.5179 48.5536 29.9873V29.9873C48.5536 30.4568 48.9342 30.8374 49.4037 30.8374ZM50.4394 16.4816H50.4961C50.9656 16.4816 51.3462 16.101 51.3462 15.6315V15.6315C51.3462 15.162 50.9656 14.7814 50.4961 14.7814H50.4394C49.9699 14.7814 49.5893 15.162 49.5893 15.6315V15.6315C49.5893 16.101 49.9699 16.4816 50.4394 16.4816Z" stroke="#3283E8" stroke-width="3.5" stroke-linecap="round"/>
<path d="M24.911 45.9375V46.0714C24.911 48.9314 27.2295 51.25 30.0895 51.25V51.25C32.9496 51.25 35.2681 48.9314 35.2681 46.0714V30V13.9285C35.2681 11.0685 32.9496 8.74997 30.0895 8.74997H29.161C26.8137 8.74997 24.911 10.6528 24.911 13V13M14.5537 25.9348C11.5846 26.6543 9.37509 29.3905 9.37509 32.6562C9.37509 36.4704 12.3892 39.5625 16.1072 39.5625C17.5577 39.5625 18.901 39.0919 20.0001 38.2914M18.4622 18.8764C18.1284 18.97 17.7995 19.0995 17.48 19.2664C14.8406 20.6451 13.8393 24.0561 15.2435 26.8852C15.7044 27.8138 16.3673 28.5643 17.1432 29.1048M23.3572 22.5625C20.7832 22.5625 18.6965 20.4218 18.6965 17.7812C18.6965 15.1406 20.7832 13 23.3572 13H24.911M24.911 13V13.6158C24.911 15.6229 26.538 17.25 28.5451 17.25V17.25M17.2767 39.9524C17.1894 40.3392 17.1432 40.7422 17.1432 41.1562C17.1432 44.0902 19.4617 46.4687 22.3218 46.4687C24.5038 46.4687 26.3706 45.0843 27.1331 43.125" stroke="white" stroke-width="3.5" stroke-linecap="round"/>
</svg>
