<svg width="60" height="60" viewBox="0 0 60 60" fill="none" xmlns="http://www.w3.org/2000/svg">
<path d="M11.6688 13.7501C11.6688 11.679 13.3478 10.0001 15.4188 10.0001H25.4188C27.4899 10.0001 29.1688 11.679 29.1688 13.7501V23.7501C29.1688 25.8211 27.4899 27.5001 25.4188 27.5001H15.4188C13.3478 27.5001 11.6688 25.8211 11.6688 23.7501V13.7501Z" stroke="#EC5401" stroke-width="3.5"/>
<path d="M39.1688 14.6667C39.1688 13.286 40.2881 12.1667 41.6688 12.1667H46.6688C48.0496 12.1667 49.1688 13.286 49.1688 14.6667V19.6667C49.1688 21.0474 48.0496 22.1667 46.6688 22.1667H41.6688C40.2881 22.1667 39.1688 21.0474 39.1688 19.6667V14.6667Z" stroke="white" stroke-width="3.5"/>
<path d="M49.1688 33.7501C49.1688 31.679 47.4899 30.0001 45.4188 30.0001H35.4188C33.3478 30.0001 31.6688 31.679 31.6688 33.7501V43.7501C31.6688 45.8212 33.3478 47.5001 35.4188 47.5001H45.4188C47.4899 47.5001 49.1688 45.8212 49.1688 43.7501V33.7501Z" stroke="#EC5401" stroke-width="3.5"/>
<path d="M21.6688 40.0001C21.6688 38.6194 20.5496 37.5001 19.1688 37.5001H14.1688C12.7881 37.5001 11.6688 38.6194 11.6688 40.0001V45.0001C11.6688 46.3808 12.7881 47.5001 14.1688 47.5001H19.1688C20.5496 47.5001 21.6688 46.3808 21.6688 45.0001V40.0001Z" stroke="#E4E7EE" stroke-width="3.5"/>
</svg>
