<svg width="60" height="60" viewBox="0 0 60 60" fill="none" xmlns="http://www.w3.org/2000/svg">
<path d="M16.2729 25L16.2729 25L16.25 25L16.25 25L16.2729 25Z" stroke="#EC5401" stroke-width="5.5" stroke-linejoin="round"/>
<path d="M30.0114 25L30.0114 25L29.9886 25L29.9886 25L30.0114 25Z" stroke="#EC5401" stroke-width="5.5" stroke-linejoin="round"/>
<path d="M43.75 25L43.75 25L43.7271 25L43.7271 25L43.75 25Z" stroke="#EC5401" stroke-width="5.5" stroke-linejoin="round"/>
<path d="M22.5 36.2523L22.5249 36.2773L22.4999 36.2773L37.475 36.2523L22.5 36.2523Z" stroke="white" stroke-width="3.5" stroke-linejoin="round"/>
<path d="M10 47.5L50 47.5C52.7614 47.5 55 45.2614 55 42.5L55 16.25C55 13.4886 52.7614 11.25 50 11.25L10 11.25C7.23857 11.25 5 13.4886 5 16.25L5 42.5C5 45.2614 7.23858 47.5 10 47.5Z" stroke="white" stroke-width="3.5" stroke-linejoin="round"/>
</svg>
