<svg width="60" height="60" viewBox="0 0 60 60" fill="none" xmlns="http://www.w3.org/2000/svg">
<path d="M13.1316 24.5672C18.0065 27.614 31.4532 31.8794 46.2401 24.5672M13.1316 24.5672C11.9449 14.3186 16.0292 8.92879 19.8918 6.62086C22.1947 5.24487 24.7774 6.34483 26.9472 7.92238C27.7591 8.51271 28.6178 8.95069 29.4896 8.95069C30.5269 8.95069 31.8233 8.33881 33.0217 7.6434C34.9177 6.54332 37.1695 5.77681 39.0539 6.89646C44.3434 10.0393 46.0676 19.5089 46.2401 24.5672M13.1316 24.5672C9.67503 25.1042 3.10348 27.1733 4.4698 31.1534C6.17769 36.1286 17.539 38.5048 30.8309 37.9108C45.6822 37.9108 53.7019 35.089 54.6672 31.1534C55.4395 28.005 49.3709 25.4507 46.2401 24.5672M23.5589 49.4598C23.5589 51.9106 21.5721 53.8974 19.1212 53.8974C16.6704 53.8974 14.6836 51.9106 14.6836 49.4598C14.6836 47.0089 16.6704 45.0221 19.1212 45.0221C21.5721 45.0221 23.5589 47.0089 23.5589 49.4598ZM23.5589 49.4598C25.3148 48.3432 30.1323 46.78 35.3544 49.4598M35.3544 49.4598C35.3544 51.9106 37.3412 53.8974 39.792 53.8974C42.2428 53.8974 44.2296 51.9106 44.2296 49.4598C44.2296 47.0089 42.2428 45.0221 39.792 45.0221C37.3412 45.0221 35.3544 47.0089 35.3544 49.4598Z" stroke="white" stroke-width="3.5"/>
<path d="M23.6126 49.4597C23.6126 51.9105 21.6259 53.8973 19.175 53.8973C16.7242 53.8973 14.7374 51.9105 14.7374 49.4597C14.7374 47.0088 16.7242 45.022 19.175 45.022C21.6259 45.022 23.6126 47.0088 23.6126 49.4597ZM23.6126 49.4597C25.3686 48.3431 30.1861 46.7799 35.4082 49.4597M35.4082 49.4597C35.4082 51.9105 37.395 53.8973 39.8458 53.8973C42.2966 53.8973 44.2834 51.9105 44.2834 49.4597C44.2834 47.0088 42.2966 45.022 39.8458 45.022C37.395 45.022 35.4082 47.0088 35.4082 49.4597Z" stroke="#3283E8" stroke-width="3.5"/>
</svg>
