<svg width="60" height="60" viewBox="0 0 60 60" fill="none" xmlns="http://www.w3.org/2000/svg">
<path d="M46.8653 20.6444L33.0157 11.1549C31.4505 10.0824 29.387 10.0824 27.8217 11.1549L11.7406 22.1734C10.4904 23.03 9.74305 24.4481 9.74305 25.9636V47.2808C9.74305 49.8184 11.8001 51.8754 14.3377 51.8754H46.4998C49.0373 51.8754 51.0944 49.8184 51.0944 47.2808V25.9636C51.0944 24.4481 50.347 23.03 49.0968 22.1734L46.8653 20.6444ZM46.8653 20.6444V13.6254M27.5471 40.5421H33.2903C34.5591 40.5421 35.5876 39.5136 35.5876 38.2448V32.4505C35.5876 31.1817 34.5591 30.1532 33.2903 30.1532H27.5471C26.2783 30.1532 25.2498 31.1817 25.2498 32.4505V38.2448C25.2498 39.5136 26.2783 40.5421 27.5471 40.5421Z" stroke="white" stroke-width="3.5" stroke-linecap="round"/>
<path d="M25.2498 32.4509C25.2498 31.1821 26.2783 30.1536 27.5471 30.1536H33.2903C34.5591 30.1536 35.5876 31.1821 35.5876 32.4509V38.2452C35.5876 39.5139 34.5591 40.5424 33.2903 40.5424H27.5471C26.2783 40.5424 25.2498 39.5139 25.2498 38.2451V32.4509Z" stroke="#01870B" stroke-opacity="0.9" stroke-width="3.5" stroke-linecap="round"/>
</svg>
