<svg width="60" height="60" viewBox="0 0 60 60" fill="none" xmlns="http://www.w3.org/2000/svg">
<path d="M13.375 34.7503H16.9375M13.375 34.7503C12.7192 34.7503 12.1875 35.282 12.1875 35.9378V38.9066C12.1875 39.5624 12.7192 40.0941 13.375 40.0941H16.9375C17.5933 40.0941 18.125 39.5624 18.125 38.9066M13.375 34.7503C12.7192 34.7503 12.1875 34.2187 12.1875 33.5628V30.5941C12.1875 29.9382 12.7192 29.4066 13.375 29.4066M16.9375 34.7503C17.5933 34.7503 18.125 35.282 18.125 35.9378M16.9375 34.7503C17.5933 34.7503 18.125 34.2187 18.125 33.5628V30.5941C18.125 29.9382 17.5933 29.4066 16.9375 29.4066M18.125 35.9378V38.9066M18.125 35.9378C18.125 35.282 18.6567 34.7503 19.3125 34.7503H22.875C23.5308 34.7503 24.0625 35.282 24.0625 35.9378V38.9066C24.0625 39.5624 23.5308 40.0941 22.875 40.0941H19.3125C18.6567 40.0941 18.125 39.5624 18.125 38.9066M13.375 29.4066H16.9375M13.375 29.4066C12.7192 29.4066 12.1875 28.8749 12.1875 28.2191V25.2503C12.1875 24.5945 12.7192 24.0628 13.375 24.0628H16.9375C17.5933 24.0628 18.125 24.5945 18.125 25.2503V28.2191C18.125 28.8749 17.5933 29.4066 16.9375 29.4066M35.3437 11.0003V13.9691M35.3437 11.0003C35.3437 10.3445 34.8121 9.81281 34.1562 9.81281H30.5937C29.9379 9.81281 29.4062 10.3445 29.4062 11.0003V13.9691C29.4062 14.6249 29.9379 15.1566 30.5937 15.1566H34.1562C34.8121 15.1566 35.3437 14.6249 35.3437 13.9691M35.3437 11.0003C35.3437 10.3445 35.8754 9.81281 36.5312 9.81281M35.3437 13.9691C35.3437 14.6249 35.8754 15.1566 36.5312 15.1566H40.0937C40.7496 15.1566 41.2812 14.6249 41.2812 13.9691M36.5312 9.81281H40.0937M36.5312 9.81281C35.8754 9.81281 35.3437 9.28115 35.3437 8.62531V6.84406M40.0937 9.81281C40.7496 9.81281 41.2812 10.3445 41.2812 11.0003M40.0937 9.81281C40.7496 9.81281 41.2812 9.28115 41.2812 8.62531V6.84406M41.2812 11.0003V13.9691M41.2812 11.0003C41.2812 10.3445 41.8129 9.81281 42.4687 9.81281H46.0312C46.6871 9.81281 47.2187 10.3445 47.2187 11.0003V13.9691C47.2187 14.6249 46.6871 15.1566 46.0312 15.1566H42.4687C41.8129 15.1566 41.2812 14.6249 41.2812 13.9691M35.3437 25.2503V28.2191C35.3437 28.8749 35.8754 29.4066 36.5312 29.4066H40.0937C40.7496 29.4066 41.2812 28.8749 41.2812 28.2191V25.2503C41.2812 24.5945 40.7496 24.0628 40.0937 24.0628H36.5312C35.8754 24.0628 35.3437 24.5945 35.3437 25.2503ZM10.9375 40.0941H7.5C6.80964 40.0941 6.25 39.5344 6.25 38.8441V36.0003C6.25 35.31 6.80964 34.7503 7.5 34.7503H10.9375C11.6279 34.7503 12.1875 35.31 12.1875 36.0003V38.8441C12.1875 39.5344 11.6279 40.0941 10.9375 40.0941Z" stroke="#9747FF" stroke-width="3.5" stroke-linecap="round" stroke-linejoin="round"/>
<path d="M53.7501 40.0938V10.0001C53.7501 7.92899 52.0712 6.25006 50.0001 6.25006H10.0001C7.92902 6.25006 6.25009 7.92899 6.25009 10.0001V41.4167M53.7501 40.0938V50.0001C53.7501 52.0711 52.0712 53.7501 50.0001 53.7501H10.0001C7.92902 53.7501 6.25009 52.0711 6.25009 50.0001V41.3438C6.25009 40.6535 6.80974 40.0938 7.50009 40.0938H53.7501ZM42.172 45.4376H46.3282C47.148 45.4376 47.8126 46.1021 47.8126 46.9219C47.8126 47.7417 47.148 48.4063 46.3282 48.4063H42.172C41.3522 48.4063 40.6876 47.7417 40.6876 46.9219C40.6876 46.1021 41.3522 45.4376 42.172 45.4376ZM35.3438 25.2501V28.2188C35.3438 28.8746 35.8755 29.4063 36.5313 29.4063H40.0938C40.7497 29.4063 41.2813 28.8746 41.2813 28.2188V25.2501C41.2813 24.5942 40.7497 24.0626 40.0938 24.0626H36.5313C35.8755 24.0626 35.3438 24.5942 35.3438 25.2501ZM13.672 48.4063H17.8282C18.648 48.4063 19.3126 47.7417 19.3126 46.9219V46.9219C19.3126 46.1021 18.648 45.4376 17.8282 45.4376H13.672C12.8522 45.4376 12.1876 46.1021 12.1876 46.9219V46.9219C12.1876 47.7417 12.8522 48.4063 13.672 48.4063Z" stroke="white" stroke-width="3.5" stroke-linecap="round" stroke-linejoin="round"/>
</svg>
