<svg width="60" height="60" viewBox="0 0 60 60" fill="none" xmlns="http://www.w3.org/2000/svg">
<rect width="60" height="60" rx="8" fill="#2E2F37"/>
<path d="M29.9948 44.5207C29.2297 44.5639 28.6173 44.6815 28.0884 44.7831C27.6206 44.8729 27.2181 44.9502 26.8331 44.9525C26.6748 45.2908 26.439 45.5871 26.1447 45.8172C25.8504 46.0472 25.506 46.2047 25.1395 46.2766C24.0912 46.5141 22.7742 46.2742 21.4788 45.5954C20.654 45.1593 19.678 45.0479 18.7809 44.9455C18.3604 44.8975 17.9571 44.8515 17.595 44.7749C17.0264 44.6574 16.5275 44.4487 16.2828 43.9713C16.0381 43.4963 16.0837 42.8438 16.4291 41.8963C16.534 41.57 16.46 41.092 16.3809 40.5811L29.9948 44.5207ZM29.9948 44.5207C30.4539 44.4846 30.9668 44.5589 31.5269 44.6401C32.1608 44.7319 32.8552 44.8325 33.6004 44.7917M29.9948 44.5207L33.7635 45.2307M33.6004 44.7917C33.6367 44.9441 33.6915 45.0915 33.7635 45.2307M33.6004 44.7917L33.6282 45.3007L33.6283 45.3018L32.7502 45.9852L32.7423 45.9773L32.6531 45.8048C32.5346 45.5757 32.4444 45.3329 32.3845 45.082L33.6004 44.7917ZM33.7635 45.2307L33.7659 45.2331C34.3104 46.3246 35.3252 46.8212 36.4047 46.7372M33.7635 45.2307L36.4047 46.7372M36.4047 46.7372C37.4842 46.6509 38.6308 46.0152 39.5592 44.9093M36.4047 46.7372L39.5592 44.9093M39.5592 44.9093C40.1839 44.1529 41.0962 43.709 41.9213 43.3075C42.2686 43.1386 42.6004 42.9771 42.8889 42.803M39.5592 44.9093L42.8889 42.803M42.8889 42.803C43.3758 42.508 43.7716 42.141 43.8004 41.606L42.8889 42.803ZM43.5298 38.0393C43.4467 37.6685 43.3008 37.0179 42.8842 36.4417V36.3429L42.5399 36.0445C42.9092 34.2392 42.6036 32.4984 42.0288 30.9763L42.0282 30.9748C41.207 28.8087 39.8027 26.9652 38.7802 25.7562C37.6273 24.3 36.8658 23.3063 36.8798 21.8518C36.8811 21.7317 36.883 21.6047 36.8851 21.4715C36.9072 20.0294 36.9404 17.8699 36.3338 16.0266C35.9918 14.9875 35.4217 13.9582 34.4608 13.1917C33.4866 12.4147 32.2243 11.9984 30.6706 11.9963H30.6689C30.4163 11.9963 30.1593 12.0075 29.8958 12.0292C28.1845 12.1669 26.8741 12.7391 25.9377 13.6744C25.016 14.5949 24.5744 15.7497 24.3664 16.8431C24.1593 17.9314 24.1682 19.0409 24.2117 19.9572C24.2302 20.3477 24.2524 20.6794 24.2715 20.9655C24.3013 21.4119 24.3237 21.7473 24.3134 22.0217C24.2183 23.3464 23.9685 24.3111 23.0983 25.5613C21.8334 27.0727 19.9978 29.5737 19.1053 32.2536L19.1052 32.254C18.7419 33.3461 18.5156 34.5229 18.5868 35.7034C18.4501 35.8705 18.3326 36.0315 18.2377 36.1614L18.2364 36.1633C18.0864 36.3687 17.9976 36.4889 17.9206 36.5749C17.9085 36.5827 17.8778 36.6005 17.816 36.6269C17.7596 36.6509 17.6908 36.6767 17.596 36.71C17.569 36.7195 17.5322 36.7322 17.4912 36.7463C17.4204 36.7707 17.3372 36.7995 17.2705 36.8233L17.2668 36.8246C16.7429 37.0136 15.8855 37.3842 15.3725 38.3719L15.2319 38.6428V38.6922C15.1024 39.0389 15.0394 39.4079 15.0472 39.7798C15.0487 40.1374 15.1007 40.4783 15.137 40.7167L15.1382 40.7244L15.1386 40.727L15.1412 40.744C15.1835 41.0175 15.2136 41.2124 15.226 41.38C15.2324 41.4671 15.231 41.5162 15.23 41.5367C14.8763 42.5301 14.6848 43.5966 15.1704 44.5415C15.6877 45.5507 16.6905 45.864 17.3384 45.9983C17.753 46.0858 18.2752 46.1461 18.7359 46.1994C18.9555 46.2247 19.1611 46.2485 19.3344 46.2728C19.9716 46.3622 20.4846 46.4837 20.8945 46.7004L20.8985 46.7025C22.3617 47.4694 23.9794 47.8154 25.3985 47.4996C25.9512 47.3882 26.4703 47.1493 26.9146 46.8019C27.1593 46.6106 27.3775 46.3893 27.5645 46.144C27.8224 46.1076 28.0715 46.0595 28.3004 46.0153C28.3395 46.0077 28.378 46.0003 28.4159 45.9931C28.9128 45.898 29.4311 45.8045 30.0654 45.7687L30.079 45.7679L30.0926 45.7668C30.4091 45.742 30.795 45.7976 31.4504 45.892L31.4601 45.8934C31.8428 45.9485 32.2905 46.011 32.7802 46.0377C33.5945 47.4407 35.0272 48.0981 36.5016 47.9835L36.5043 47.9832C37.9925 47.8642 39.4269 47.0111 40.5166 45.713L40.5166 45.713L40.523 45.7053C40.8106 45.357 41.2279 45.0699 41.7783 44.7773C42.0012 44.6588 42.2231 44.5508 42.4606 44.4353C42.5167 44.408 42.5736 44.3803 42.6316 44.3519C42.9207 44.2106 43.2393 44.0515 43.5347 43.8733L43.5366 43.8721C44.0884 43.5378 44.9827 42.8716 45.0485 41.6761C45.1095 40.6125 44.484 39.6876 43.7567 38.8721C43.7488 38.8551 43.7306 38.8142 43.706 38.7386C43.654 38.5787 43.6089 38.3833 43.5436 38.1005C43.5392 38.0811 43.5346 38.0607 43.5298 38.0393Z" fill="#2E2F37" stroke="white" stroke-width="2.5"/>
<path d="M41.9837 41.3702C41.8267 41.4622 41.6251 41.5618 41.3525 41.6923C41.3196 41.7081 41.2857 41.7243 41.2509 41.7408C40.9964 41.8624 40.6981 42.0048 40.3971 42.165C39.7128 42.5293 38.9105 43.0376 38.2622 43.8227C37.5573 44.6579 36.7918 45.0044 36.2694 45.0467C36.0065 45.0668 35.8244 45.0193 35.6955 44.9487C35.5905 44.8912 35.4674 44.7895 35.3487 44.5948L35.2684 44.4428C35.269 44.4439 35.2689 44.4437 35.2684 44.442C35.264 44.429 35.2283 44.3242 35.2445 44.0565C35.2619 43.7702 35.331 43.4095 35.4453 42.98C35.5169 42.7107 35.5823 42.4919 35.6517 42.2591C35.7099 42.0642 35.7711 41.8594 35.8413 41.607C35.971 41.1407 36.1025 40.603 36.135 40.0778L36.1355 40.0692L36.136 40.0607C36.1588 39.5864 36.1831 39.1719 36.2159 38.8109C36.453 38.979 36.7276 39.1137 37.0425 39.1938C37.8779 39.4106 38.7101 39.1427 39.2701 38.8743C39.6685 38.6834 40.0551 38.4319 40.3807 38.1551C40.4413 38.1574 40.47 38.1621 40.4859 38.1659L40.4906 38.1671L41.9837 41.3702ZM41.9837 41.3702C41.8929 41.2303 41.7517 41.0429 41.5373 40.8039L41.5327 40.7988L41.5327 40.7988C40.9772 40.1725 40.7987 39.3322 40.7062 38.8969C40.6953 38.8455 40.6856 38.7997 40.6766 38.7606M41.9837 41.3702L40.6766 38.7606M40.6766 38.7606C40.6191 38.5125 40.5722 38.347 40.5253 38.2314C40.5143 38.2043 40.5053 38.1849 40.4987 38.1718C40.4945 38.169 40.4922 38.1677 40.4917 38.1675C40.4916 38.1674 40.4916 38.1674 40.4916 38.1674L40.6766 38.7606ZM25.3711 43.9019C25.3712 43.9019 25.3713 43.9016 25.3713 43.901L25.366 43.9551V43.9682C25.3385 44.2359 25.2605 44.3522 25.2108 44.4071C25.1524 44.4714 25.0308 44.5621 24.7644 44.6231C24.2367 44.7435 23.3203 44.6441 22.27 44.0971C21.4043 43.6385 20.4965 43.4517 19.7424 43.3453C19.4386 43.3024 19.138 43.2701 18.8753 43.2419C18.8131 43.2352 18.7531 43.2287 18.6957 43.2224C18.3772 43.1874 18.1378 43.1568 17.9458 43.1166L17.9447 43.1164C17.9087 43.1089 17.8762 43.1015 17.8469 43.0943C17.869 42.9643 17.9149 42.7788 18.0043 42.5265L18.0123 42.5104L18.0324 42.4485L18.1002 42.2632V42.2101C18.2636 41.5137 18.1422 40.807 18.0756 40.4198C18.0664 40.3664 18.0583 40.3191 18.0521 40.2787L18.052 40.2778C18.0146 40.0358 17.9987 39.8728 17.9999 39.7567C18.0001 39.7364 18.0009 39.7203 18.0018 39.708C18.0105 39.7023 18.0302 39.6906 18.0687 39.6731C18.1142 39.6524 18.174 39.6288 18.2633 39.597L18.2633 39.597L18.2716 39.594C18.3013 39.5832 18.3415 39.5701 18.3903 39.5543C18.722 39.4466 19.4517 39.2097 20.0055 38.6562C20.0056 38.6561 20.0057 38.656 20.0058 38.6558L20.0079 38.6538L20.0211 38.6406L20.0339 38.627C20.271 38.3755 20.4695 38.1045 20.6157 37.9048L20.6179 37.9019C20.7825 37.6771 20.8806 37.5445 20.9741 37.4443C21.0026 37.4141 21.0251 37.392 21.0426 37.3757C21.0932 37.3859 21.2758 37.4482 21.5982 37.867L22.8081 40.0712C23.0391 40.5487 23.3704 41.0049 23.6749 41.3969C23.8176 41.5808 23.9672 41.7663 24.1096 41.9429C24.1243 41.9612 24.1389 41.9794 24.1535 41.9974C24.3118 42.1939 24.4617 42.3808 24.6033 42.5658C24.8864 42.9371 25.102 43.2638 25.2371 43.5365C25.3641 43.7929 25.3695 43.902 25.3711 43.9019ZM17.83 43.3023C17.8299 43.3023 17.8299 43.3018 17.8298 43.3008L17.83 43.3023Z" stroke="white" stroke-width="2.5"/>
<path d="M29.1513 22.0605C29.27 22.0612 29.5495 22.097 30.0268 22.4055C30.3171 22.5933 30.5806 22.7071 30.8091 22.7922C30.5566 22.8989 30.3458 23.0243 30.1897 23.1217C30.0781 23.1913 30.0017 23.2412 29.9375 23.283C29.8523 23.3385 29.7888 23.3799 29.6935 23.4348C29.5606 23.5102 29.4677 23.5505 29.3882 23.5738C29.3152 23.5952 29.2304 23.609 29.1134 23.6019L29.1092 23.6017C29.0622 23.5989 29.0333 23.5937 29.0179 23.5901C29.0073 23.5877 29.0005 23.5855 28.9963 23.5839C28.9633 23.5686 28.9325 23.5491 28.9046 23.5259L28.8931 23.5163L28.8815 23.5071C28.8234 23.4607 28.7851 23.4257 28.7228 23.3688C28.6783 23.3282 28.6216 23.2764 28.5368 23.2014C28.4132 23.092 28.2528 22.9562 28.0557 22.8219C28.0587 22.8197 28.0618 22.8174 28.065 22.8151C28.0859 22.7996 28.1097 22.7821 28.1308 22.7662C28.1788 22.7303 28.2602 22.6684 28.3479 22.5856C28.4032 22.5337 28.4473 22.4912 28.4856 22.4542C28.5702 22.3726 28.627 22.3178 28.7149 22.2482C28.8203 22.1646 28.9046 22.1182 28.9766 22.0938L28.9841 22.0913L28.9915 22.0887C29.0429 22.0706 29.0969 22.0611 29.1513 22.0605ZM27.5152 22.4423C27.5152 22.4423 27.5157 22.443 27.5167 22.4444C27.5156 22.443 27.5151 22.4423 27.5152 22.4423Z" stroke="white" stroke-width="3"/>
<path d="M31.0496 23.4261C30.4379 23.7451 29.7254 24.1313 28.965 24.1313C28.2069 24.1313 27.6072 23.7811 27.1778 23.4381C26.9619 23.2701 26.7868 23.0974 26.6548 22.9751C26.4245 22.7952 26.4533 22.5409 26.5469 22.5481C26.7052 22.5673 26.7292 22.776 26.8276 22.8695C26.9619 22.9943 27.1298 23.1574 27.3337 23.3181C27.7415 23.642 28.2861 23.9562 28.965 23.9562C29.6462 23.9562 30.4379 23.558 30.9225 23.2845C31.1983 23.131 31.5462 22.8551 31.8316 22.6464C32.0475 22.4857 32.0403 22.2938 32.2203 22.3154C32.4002 22.337 32.2682 22.5289 32.0164 22.7472C31.7645 22.9679 31.3687 23.2605 31.0496 23.4261Z" fill="white"/>
<path d="M31.6014 24.3676L31.98 25.5589C31.981 25.5586 31.9809 25.5587 31.9795 25.5593C31.9713 25.563 31.9192 25.5862 31.7795 25.6732C31.7493 25.692 31.7116 25.716 31.6685 25.7435C31.5375 25.827 31.3562 25.9426 31.1813 26.0416C30.7059 26.314 30.0465 26.6041 29.1858 26.6083C28.5667 26.6241 27.9596 26.4647 27.4322 26.1538C27.2251 26.912 26.9552 27.6567 26.6774 28.3456C26.3197 29.2325 25.9041 30.1279 25.562 30.8648C25.3968 31.2208 25.2487 31.5397 25.1327 31.8028C24.6517 32.9434 24.3715 34.1512 24.3316 35.3159C24.3339 35.3446 24.3386 35.3857 24.3471 35.435C24.3593 35.505 24.3764 35.5749 24.397 35.6357C24.4066 35.6638 24.4155 35.6858 24.4229 35.7022C25.6611 36.476 26.5844 37.2902 27.1753 38.0921C27.7344 38.8457 28.2043 39.8828 27.827 40.901L27.8224 40.9134L27.8223 40.9134C27.7446 41.1163 27.6356 41.3054 27.4994 41.4738C29.2174 42.4712 31.2385 42.1508 32.9231 41.0867C33.0801 40.5391 33.1786 40.1635 33.1961 39.9031C33.245 38.935 33.3002 37.927 33.5164 37.0587C33.7243 36.2216 34.1422 35.3082 35.034 34.7291C35.1313 34.4314 35.2824 34.1457 35.5055 33.8953C35.574 33.8183 35.6463 33.7482 35.7216 33.6845C35.3813 32.1599 34.742 30.8903 34.3919 30.2404L34.3914 30.2395C33.7966 29.1332 32.9691 27.2005 32.3667 25.4185C32.239 25.4712 32.1087 25.5184 31.9767 25.56L31.6014 24.3676ZM31.6014 24.3676C31.4014 24.4312 31.1965 24.5618 30.9664 24.7085C30.8405 24.7888 30.707 24.8739 30.5627 24.9554L31.6014 24.3676Z" stroke="white" stroke-width="2.5"/>
<path d="M26.5736 21.0375L26.5537 21.0453L26.552 21.0577L26.5801 21.0458L26.5736 21.0375ZM26.5736 21.0375L26.5575 21.017L26.5624 20.9809L26.6022 21.0364L26.5966 21.0286L26.5736 21.0375ZM26.6647 20.4291C26.6584 20.4232 26.6521 20.4173 26.6459 20.4112L26.6617 20.4267L26.6644 20.4292L26.6647 20.4291ZM26.6239 20.4329H26.6221C26.6221 20.433 26.6221 20.433 26.6221 20.4331L26.6239 20.4329ZM26.6688 20.4329H26.6685L26.6781 20.4417C26.6749 20.4388 26.6719 20.4359 26.6688 20.4329ZM26.2101 20.4902L26.1926 20.4658L26.1761 20.4777C26.1771 20.4829 26.1781 20.4882 26.1791 20.4934L26.2101 20.4902Z" stroke="white" stroke-width="2.5"/>
<path d="M29.5303 21.2076C29.5543 21.2891 29.6863 21.2772 29.763 21.3155C29.8278 21.3491 29.883 21.4235 29.9549 21.4259C30.0269 21.4283 30.1373 21.4019 30.1469 21.3299C30.1588 21.2388 30.0221 21.1788 29.9358 21.1452C29.823 21.0996 29.6791 21.078 29.5735 21.138C29.5495 21.15 29.5231 21.1788 29.5303 21.2076ZM28.7579 21.2076C28.7339 21.2891 28.602 21.2772 28.5276 21.3155C28.4604 21.3491 28.4077 21.4235 28.3333 21.4259C28.2613 21.4283 28.151 21.4019 28.1414 21.3299C28.1294 21.2388 28.2661 21.1788 28.3525 21.1452C28.4652 21.0996 28.6116 21.078 28.7171 21.138C28.7411 21.15 28.7651 21.1788 28.7579 21.2076Z" fill="#2E2F37"/>
</svg>
