<svg width="60" height="60" viewBox="0 0 60 60" fill="none" xmlns="http://www.w3.org/2000/svg">
<rect width="60" height="60" rx="8" fill="black"/>
<g clip-path="url(#clip0_113_39)">
<path d="M45.25 24C45.25 23.3096 44.6904 22.75 44 22.75H36.1898L39.2269 19.7129C39.715 19.2247 39.715 18.4333 39.2269 17.9451L36.3979 15.1161C36.1635 14.8817 35.8455 14.75 35.514 14.75C35.1824 14.75 34.8645 14.8817 34.6301 15.1162L29.25 20.4969V16C29.25 15.3096 28.6904 14.75 28 14.75H24C23.3096 14.75 22.75 15.3096 22.75 16V23.8102L19.7129 20.7731C19.2247 20.285 18.4333 20.285 17.9451 20.7731L15.1161 23.6021C14.8817 23.8365 14.75 24.1545 14.75 24.486C14.75 24.8176 14.8817 25.1355 15.1162 25.3699L20.4969 30.75H16C15.3096 30.75 14.75 31.3096 14.75 32V36C14.75 36.6904 15.3096 37.25 16 37.25H23.8102L20.7731 40.2871C20.285 40.7752 20.285 41.5665 20.773 42.0547L23.601 44.8837C23.8354 45.1182 24.1533 45.25 24.4849 45.25C24.8164 45.25 25.1344 45.1183 25.3689 44.8839L30.75 39.5028V44C30.75 44.6904 31.3096 45.25 32 45.25H36C36.6904 45.25 37.25 44.6904 37.25 44V36.1898L40.2871 39.2269C40.7752 39.715 41.5665 39.715 42.0547 39.227L44.8837 36.399C45.1182 36.1646 45.25 35.8467 45.25 35.5151C45.25 35.1835 45.1183 34.8656 44.8839 34.6311L39.5028 29.25H44C44.6904 29.25 45.25 28.6904 45.25 28V24Z" stroke="white" stroke-width="2.5" stroke-linejoin="round"/>
<rect x="28.4444" y="28.4444" width="3.11111" height="3.11111" rx="1.55556" stroke="white" stroke-width="2.5"/>
</g>
<defs>
<clipPath id="clip0_113_39">
<rect width="40" height="40" fill="white" transform="translate(10 10)"/>
</clipPath>
</defs>
</svg>
