<svg width="20" height="20" viewBox="0 0 20 20" fill="none" xmlns="http://www.w3.org/2000/svg">
<rect x="4.5835" y="0.833984" width="10.8333" height="17.9167" rx="1.68832" stroke="#D4D5D7" stroke-width="1.5"/>
<rect x="14.5" y="11.5" width="0.5" height="2" rx="0.25" transform="rotate(90 14.5 11.5)" fill="#D4D5D7"/>
<path d="M16.1834 2.08398C16.4135 2.08398 16.6001 2.27053 16.6001 2.50065V3.33398C16.6001 3.5641 16.4135 3.75065 16.1834 3.75065V2.08398Z" fill="#D4D5D7"/>
<path d="M16.1834 4.58398C16.4135 4.58398 16.6001 4.77053 16.6001 5.00065V5.41732C16.6001 5.64744 16.4135 5.83398 16.1834 5.83398V4.58398Z" fill="#D4D5D7"/>
<path d="M16.1834 7.08398C16.4135 7.08398 16.6001 7.27053 16.6001 7.50065V10.4173C16.6001 10.6474 16.4135 10.834 16.1834 10.834V7.08398Z" fill="#D4D5D7"/>
<line x1="15" y1="10.75" x2="5" y2="10.75" stroke="#D4D5D7"/>
<line x1="15" y1="12.75" x2="5" y2="12.75" stroke="#D4D5D7"/>
</svg>
