<svg width="60" height="60" viewBox="0 0 60 60" fill="none" xmlns="http://www.w3.org/2000/svg">
<rect width="60" height="60" rx="8" fill="#FF6B6E"/>
<g clip-path="url(#clip0_30_81)">
<path d="M31.8386 38.3284L33.0423 43.2995C34.638 43.1986 36.155 42.3263 37.0144 40.8378C38.0902 38.9745 37.8145 36.7018 36.4916 35.1548L36.1892 34.7381M22.9414 27.2312C23.3471 25.9654 23.893 24.7233 24.5846 23.5254C27.6461 18.2228 33.4195 15.2694 39.054 14.5242C41.2259 19.7764 41.5543 26.2527 38.4929 31.5553C37.823 32.7156 37.0489 33.7782 36.1892 34.7381M22.9414 27.2312L22.5257 27.0916C20.5244 26.7194 18.4184 27.617 17.3426 29.4803C16.4832 30.9689 16.4863 32.7187 17.1968 34.1511L21.1984 33.0894L22.0438 32.911M22.9414 27.2312C22.344 29.0951 22.0506 31.0102 22.0438 32.911M22.0438 32.911C22.0427 33.2246 22.0494 33.5378 22.0638 33.8503C22.1109 34.8727 22.7272 35.7667 23.6135 36.2784L27.934 38.7728C28.8203 39.2846 29.9027 39.3713 30.8117 38.9009C32.8096 37.8669 34.6386 36.4696 36.1892 34.7381" stroke="white" stroke-width="2.75" stroke-linecap="round" stroke-linejoin="round"/>
<path d="M20.9478 45.2814C22.8113 45.035 24.7208 44.0582 25.7333 42.3044L21.1334 39.6486C20.1208 41.4024 20.2295 43.5443 20.9478 45.2814Z" stroke="white" stroke-width="2.75" stroke-linecap="round" stroke-linejoin="round"/>
<rect x="33.3678" y="24.4061" width="0.0180556" height="0.0180556" transform="rotate(30 33.3678 24.4061)" stroke="white" stroke-width="5" stroke-linejoin="round"/>
</g>
<defs>
<clipPath id="clip0_30_81">
<rect width="40" height="40" fill="white" transform="translate(10 10)"/>
</clipPath>
</defs>
</svg>
