<svg width="97" height="32" viewBox="0 0 97 32" fill="none" xmlns="http://www.w3.org/2000/svg">
<path d="M37.0172 12.3006C36.2655 12.3006 35.7011 12.496 35.3368 12.8811C35.0023 13.2354 34.7954 13.7817 34.7218 14.5063H39.3402C39.2678 13.7509 39.0666 13.1966 38.7391 12.856C38.3839 12.488 37.8046 12.3006 37.0172 12.3006Z" fill="black"/>
<path d="M83.1035 17.1177C82.7368 16.8023 82.1483 16.6411 81.3529 16.6411C80.5575 16.6411 79.9736 16.8023 79.6024 17.1177C79.4332 17.2718 79.2982 17.4591 79.2058 17.6679C79.1134 17.8766 79.0657 18.1022 79.0657 18.3303C79.0657 18.5583 79.1134 18.7839 79.2058 18.9927C79.2982 19.2014 79.4332 19.3888 79.6024 19.5428C79.9679 19.8583 80.5564 20.0194 81.3529 20.0194C82.1495 20.0194 82.7426 19.8583 83.1035 19.5428C83.2726 19.3888 83.4077 19.2014 83.5001 18.9927C83.5925 18.7839 83.6402 18.5583 83.6402 18.3303C83.6402 18.1022 83.5925 17.8766 83.5001 17.6679C83.4077 17.4591 83.2726 17.2718 83.1035 17.1177Z" fill="black"/>
<path fill-rule="evenodd" clip-rule="evenodd" d="M9.1954 0H87.3563C89.7951 0 92.134 0.963262 93.8584 2.67788C95.5829 4.3925 96.5517 6.71802 96.5517 9.14286V22.8571C96.5517 25.282 95.5829 27.6075 93.8584 29.3221C92.134 31.0367 89.7951 32 87.3563 32H9.1954C6.75663 32 4.41774 31.0367 2.69327 29.3221C0.968798 27.6075 0 25.282 0 22.8571V9.14286C0 6.71802 0.968798 4.3925 2.69327 2.67788C4.41774 0.963262 6.75663 0 9.1954 0ZM24.7667 23.0857H28.708V8.91428H8.96552V23.0857H12.9069V12.5714H16.8667V23.0857H20.8046V12.5714H24.7667V23.0857ZM34.8276 17.4937H43.3057L43.3011 15.7177C43.3011 13.544 42.7988 11.808 41.8069 10.5566C40.8011 9.288 39.208 8.64571 37.0736 8.64571C34.9 8.64571 33.2805 9.32457 32.2563 10.6663C31.2483 11.9874 30.7368 13.7863 30.7368 16.0103C30.7368 17.9486 31.2506 19.6674 32.2644 21.12C33.2966 22.5989 35.2379 23.3486 38.0379 23.3486C38.7195 23.3486 39.3586 23.3211 39.9333 23.2674C40.7013 23.1809 41.463 23.0462 42.2138 22.864L42.3919 22.8229V19.2137L42.1115 19.2754C41.4373 19.4316 40.754 19.5461 40.0655 19.6183C39.4943 19.6709 38.9023 19.6971 38.3057 19.6971C37.0954 19.6971 36.2253 19.4937 35.7161 19.0937C35.2667 18.7429 34.9678 18.2046 34.8276 17.4937ZM53.831 14.9634H57.7586V14.7303C57.7711 13.6669 57.523 12.6164 57.0356 11.6697C56.5485 10.7422 55.8015 9.97488 54.8851 9.46057C53.9425 8.91886 52.8046 8.64457 51.5023 8.64457C49.3701 8.64457 47.7115 9.33143 46.6 10.6571C45.4885 11.9829 44.9253 13.7726 44.9253 15.9829C44.9253 18.1931 45.4782 19.9806 46.5988 21.3211C47.7195 22.6617 49.369 23.3474 51.5023 23.3474C52.8046 23.3474 53.9425 23.0731 54.8851 22.5314C55.8016 22.0168 56.5489 21.2496 57.0368 20.3223C57.5232 19.3749 57.7709 18.3242 57.7586 17.2606V17.032H53.8299L53.8161 17.2469C53.7655 18.0663 53.5793 18.6914 53.2609 19.1051C52.9598 19.4971 52.3862 19.6949 51.5552 19.6949C50.5172 19.6949 49.8069 19.4206 49.4437 18.8777C49.0632 18.3074 48.869 17.3326 48.869 15.9829C48.869 14.6331 49.0609 13.664 49.4437 13.1017C49.8069 12.5714 50.5218 12.3017 51.5563 12.3017C52.3873 12.3017 52.9609 12.4994 53.2621 12.8903C53.5805 13.304 53.7667 13.9303 53.8172 14.7497L53.831 14.9634ZM69.0253 23.0857H72.9667V8.91428H63.8609V3.98857H59.9195V23.0857H63.8609V12.5714H69.0253V23.0857ZM83.6448 23.0857H89.3276V19.2994H87.5862V8.91428H76.6816V12.4309H83.646V14.488C83.3365 14.1703 82.9701 13.9129 82.5655 13.7291C81.9563 13.4503 81.1448 13.3086 80.1517 13.3086C79.0782 13.3086 78.1506 13.544 77.3931 14.008C76.6572 14.4496 76.065 15.0928 75.6873 15.8606C75.3195 16.6325 75.1287 17.4761 75.1287 18.3303C75.1287 19.1845 75.3195 20.0281 75.6873 20.8C76.065 21.5677 76.6572 22.2109 77.3931 22.6526C78.1506 23.1166 79.0782 23.352 80.1517 23.352C81.1276 23.352 81.9356 23.2057 82.5529 22.9177C82.959 22.7308 83.3287 22.4739 83.6448 22.1589V23.0857Z" fill="black"/>
</svg>
