<svg width="40" height="40" viewBox="0 0 40 40" fill="none" xmlns="http://www.w3.org/2000/svg">
<g clip-path="url(#clip0_31_166)">
<path d="M19.3088 26.2842C19.3088 25.7068 19.2086 25.1527 19.0245 24.6379M19.3088 26.2842C19.3088 25.6818 19.4179 25.1046 19.6175 24.5712M19.3088 26.2842C19.3088 26.478 19.2975 26.6692 19.2755 26.8572M19.3088 26.2842C19.3088 26.4806 19.3204 26.6742 19.3429 26.8646M14.3557 21.3662C14.2665 21.3662 14.1778 21.3686 14.0897 21.3732M14.8376 16.7214C14.1905 17.5526 13.8054 18.5951 13.8054 19.7269C13.8054 20.3043 13.9056 20.8585 14.0897 21.3732M14.8376 16.7214C15.7435 15.558 17.1628 14.8089 18.7585 14.8089C20.3541 14.8089 21.7735 15.558 22.6793 16.7214M14.8376 16.7214C14.4446 14.3955 12.4073 12.6231 9.95303 12.6231C7.21753 12.6231 4.99997 14.825 4.99997 17.5411C4.99997 20.2573 7.21753 22.4591 9.95303 22.4591C10.5413 22.4591 11.1057 22.3573 11.6292 22.1704M22.6793 16.7214C23.3265 17.5526 23.7115 18.5951 23.7115 19.7269C23.7115 20.0062 23.6881 20.28 23.643 20.5466M22.6793 16.7214C23.0723 14.3955 25.1097 12.6231 27.5639 12.6231C30.2994 12.6231 32.517 14.825 32.517 17.5411C32.517 20.2573 30.2994 22.4591 27.5639 22.4591C27.4992 22.4591 27.4348 22.4579 27.3707 22.4555M23.643 20.5466C23.8804 20.8515 24.1531 21.1279 24.455 21.3699M23.643 20.5466C23.5909 20.8551 23.5099 21.1538 23.4028 21.4399M24.455 21.3699C24.3909 21.3675 24.3265 21.3662 24.2619 21.3662C23.9689 21.3662 23.6818 21.3915 23.4028 21.4399M24.455 21.3699C25.5574 21.4119 26.5674 21.8116 27.3707 22.4555M27.3707 22.4555C28.4955 23.357 29.2149 24.7372 29.2149 26.2842C29.2149 29.0004 26.9974 31.2023 24.2619 31.2023C24.0641 31.2023 23.8691 31.1907 23.6774 31.1684M14.0897 21.3732C13.5877 21.3996 13.1056 21.5002 12.6541 21.6641C10.7569 22.3533 9.40269 24.1617 9.40269 26.2842C9.40269 28.827 11.3462 30.919 13.8387 31.1758M14.0897 21.3732C14.7717 23.2797 16.6045 24.6449 18.7585 24.6449C18.8477 24.6449 18.9364 24.6426 19.0245 24.6379M19.0245 24.6379C19.2256 24.6274 19.4235 24.6049 19.6175 24.5712M23.4028 21.4399C22.7987 23.0539 21.3658 24.2676 19.6175 24.5712M13.8387 31.1758C13.8167 31.3637 13.8054 31.5549 13.8054 31.7487C13.8054 34.4648 16.023 36.6667 18.7585 36.6667C21.494 36.6667 23.7115 34.4648 23.7115 31.7487C23.7115 31.5524 23.6999 31.3587 23.6774 31.1684M13.8387 31.1758C14.0086 31.1933 14.1811 31.2023 14.3557 31.2023C16.8961 31.2023 18.9897 29.3034 19.2755 26.8572M19.2755 26.8572C19.298 26.8595 19.3205 26.862 19.3429 26.8646M19.3429 26.8646C19.6096 29.1169 21.409 30.9036 23.6774 31.1684M7.20133 13.4513L6.22532 11.1045C5.7688 10.0068 6.57537 8.79783 7.7642 8.79783H12.8342C13.2742 8.79783 13.6963 8.62385 14.0085 8.31385L17.7867 4.56238C18.461 3.89285 19.5577 3.92171 20.1959 4.62576L23.4814 8.25047C23.7973 8.59902 24.2458 8.79783 24.7163 8.79783H30.6325C31.8724 8.79783 32.6782 10.1036 32.1222 11.2119L30.8659 13.7158" stroke="#191e2c" stroke-width="3"/>
</g>
<defs>
<clipPath id="clip0_31_166">
<rect width="40" height="40" fill="#191e2c"/>
</clipPath>
</defs>
</svg>
