<svg width="40" height="41" viewBox="0 0 40 41" fill="none" xmlns="http://www.w3.org/2000/svg">
<path d="M18.2824 2.27536C16.9387 2.2817 15.6555 2.39811 14.5264 2.60107C11.2003 3.198 10.5964 4.44742 10.5964 6.75156V9.79463H18.4564V10.809H7.64665C5.36231 10.809 3.36208 12.2038 2.73643 14.8571C2.01476 17.8985 1.98275 19.7963 2.73643 22.972C3.29515 25.3358 4.62944 27.0201 6.91378 27.0201H9.61623V23.3721C9.61623 20.7367 11.8609 18.412 14.5264 18.412H22.3773C24.5627 18.412 26.3073 16.5841 26.3073 14.3546V6.75156C26.3073 4.5877 24.5103 2.96221 22.3773 2.60107C21.0271 2.37274 19.6261 2.26902 18.2824 2.27536ZM14.0318 4.72285C14.8436 4.72285 15.5067 5.40737 15.5067 6.24903C15.5067 7.08772 14.8436 7.76592 14.0318 7.76592C13.217 7.76592 12.5569 7.08772 12.5569 6.24903C12.5569 5.40737 13.217 4.72285 14.0318 4.72285Z" stroke="#191e2c" stroke-width="2"/>
<path d="M29.9764 13.4978V17.0434C29.9764 19.7923 27.6822 22.1059 25.0661 22.1059H17.2153C15.0648 22.1059 13.2853 23.9756 13.2853 26.1633V33.7664C13.2853 35.9302 15.1376 37.203 17.2153 37.8238C19.7033 38.567 22.0892 38.7013 25.0661 37.8238C27.0449 37.2418 28.9961 36.0705 28.9961 33.7664V30.7233H21.1453V29.7089H32.9261C35.2105 29.7089 36.0617 28.0903 36.8561 25.6608C37.6768 23.1597 37.6418 20.7544 36.8561 17.546C36.2916 15.2358 35.2134 13.4978 32.9261 13.4978H29.9764ZM25.5608 32.752C26.3756 32.752 27.0357 33.4302 27.0357 34.2689C27.0357 35.1106 26.3756 35.7951 25.5608 35.7951C24.7489 35.7951 24.0859 35.1106 24.0859 34.2689C24.0859 33.4302 24.7489 32.752 25.5608 32.752Z" stroke="#191e2c" stroke-width="2"/>
</svg>
