<svg width="40" height="40" viewBox="0 0 40 40" fill="none" xmlns="http://www.w3.org/2000/svg">
<path d="M4 26.0875V33.125C4 34.1605 4.83947 35 5.875 35H33.125C34.1605 35 35 34.1605 35 33.125V26.0875M4 26.0875V22.6M4 26.0875H7.875M35 26.0875V5.875C35 4.83947 34.1605 4 33.125 4H5.875C4.83947 4 4 4.83947 4 5.875V22.6M35 26.0875H7.875M4 22.6H7.25C7.59518 22.6 7.875 22.8798 7.875 23.225V26.0875M8.65 22.6H10.975M8.65 22.6C8.22198 22.6 7.875 22.947 7.875 23.375V25.3125C7.875 25.7405 8.22198 26.0875 8.65 26.0875H10.975C11.403 26.0875 11.75 25.7405 11.75 25.3125M8.65 22.6C8.22198 22.6 7.875 22.253 7.875 21.825V19.8875C7.875 19.4595 8.22198 19.1125 8.65 19.1125M10.975 22.6C11.403 22.6 11.75 22.947 11.75 23.375M10.975 22.6C11.403 22.6 11.75 22.253 11.75 21.825V19.8875C11.75 19.4595 11.403 19.1125 10.975 19.1125M11.75 23.375V25.3125M11.75 23.375C11.75 22.947 12.097 22.6 12.525 22.6H14.85C15.278 22.6 15.625 22.947 15.625 23.375V25.3125C15.625 25.7405 15.278 26.0875 14.85 26.0875H12.525C12.097 26.0875 11.75 25.7405 11.75 25.3125M8.65 19.1125H10.975M8.65 19.1125C8.22198 19.1125 7.875 18.7655 7.875 18.3375V16.4C7.875 15.972 8.22198 15.625 8.65 15.625H10.975C11.403 15.625 11.75 15.972 11.75 16.4V18.3375C11.75 18.7655 11.403 19.1125 10.975 19.1125M22.9875 7.1V9.0375M22.9875 7.1C22.9875 6.67198 22.6405 6.325 22.2125 6.325H19.8875C19.4595 6.325 19.1125 6.67198 19.1125 7.1V9.0375C19.1125 9.46552 19.4595 9.8125 19.8875 9.8125H22.2125C22.6405 9.8125 22.9875 9.46552 22.9875 9.0375M22.9875 7.1C22.9875 6.67198 23.3345 6.325 23.7625 6.325M22.9875 9.0375C22.9875 9.46552 23.3345 9.8125 23.7625 9.8125H26.0875C26.5155 9.8125 26.8625 9.46552 26.8625 9.0375M23.7625 6.325H26.0875M23.7625 6.325C23.3345 6.325 22.9875 5.97802 22.9875 5.55V4.3875M26.0875 6.325C26.5155 6.325 26.8625 6.67198 26.8625 7.1M26.0875 6.325C26.5155 6.325 26.8625 5.97802 26.8625 5.55V4.3875M26.8625 7.1V9.0375M26.8625 7.1C26.8625 6.67198 27.2095 6.325 27.6375 6.325H29.9625C30.3905 6.325 30.7375 6.67198 30.7375 7.1V9.0375C30.7375 9.46552 30.3905 9.8125 29.9625 9.8125H27.6375C27.2095 9.8125 26.8625 9.46552 26.8625 9.0375M27.4437 29.575H30.1562C30.6913 29.575 31.125 30.0087 31.125 30.5437C31.125 31.0788 30.6913 31.5125 30.1562 31.5125H27.4437C26.9087 31.5125 26.475 31.0788 26.475 30.5437C26.475 30.0087 26.9087 29.575 27.4437 29.575ZM22.9875 16.4V18.3375C22.9875 18.7655 23.3345 19.1125 23.7625 19.1125H26.0875C26.5155 19.1125 26.8625 18.7655 26.8625 18.3375V16.4C26.8625 15.972 26.5155 15.625 26.0875 15.625H23.7625C23.3345 15.625 22.9875 15.972 22.9875 16.4ZM8.84375 31.5125H11.5562C12.0913 31.5125 12.525 31.0788 12.525 30.5437V30.5437C12.525 30.0087 12.0913 29.575 11.5562 29.575H8.84375C8.30872 29.575 7.875 30.0087 7.875 30.5437V30.5437C7.875 31.0788 8.30872 31.5125 8.84375 31.5125Z" stroke="#191e2c" stroke-width="2.25" stroke-linecap="round" stroke-linejoin="round"/>
</svg>
