<svg width="40" height="40" viewBox="0 0 40 40" fill="none" xmlns="http://www.w3.org/2000/svg">
<path d="M38.1442 16.7514C38.0414 16.6667 37.1098 15.9589 35.1104 15.9589C34.5931 15.9589 34.0577 16.0103 33.5405 16.098C33.1624 13.4604 30.9724 12.1839 30.8847 12.1174L30.3493 11.8058L30.0045 12.3049C29.575 12.9764 29.2453 13.7357 29.0577 14.51C28.6948 16.0103 28.9186 17.4229 29.6778 18.6298C28.7643 19.147 27.2822 19.268 26.9706 19.2862H2.4909C1.85267 19.2862 1.33543 19.8034 1.33543 20.4416C1.30215 22.5802 1.6621 24.7157 2.40318 26.7332C3.2471 28.9383 4.50542 30.5778 6.12671 31.5759C7.95369 32.6951 10.9361 33.3334 14.2967 33.3334C15.8121 33.3334 17.3306 33.1942 18.8309 32.919C20.918 32.5409 22.9174 31.8149 24.7595 30.7653C26.2779 29.8851 27.6391 28.7659 28.7946 27.4562C30.7425 25.2662 31.898 22.8191 32.7419 20.6473C32.8629 20.6473 32.9658 20.6473 33.0868 20.6473C35.2071 20.6473 36.5169 19.8034 37.2398 19.0775C37.7238 18.6298 38.0837 18.0762 38.3439 17.4562L38.4981 17.0085L38.1442 16.7514ZM22.993 18.5784H26.2689C26.4231 18.5784 26.5623 18.4574 26.5623 18.285V15.3539C26.5623 15.1997 26.4413 15.0605 26.2689 15.0605H22.993C22.8387 15.0605 22.6996 15.1815 22.6996 15.3539V18.285C22.7177 18.4574 22.8387 18.5784 22.993 18.5784ZM18.4256 10.1845H21.7014C21.8557 10.1845 21.9948 10.0635 21.9948 9.89113V6.96009C21.9948 6.80583 21.8557 6.66669 21.7014 6.66669H18.4256C18.2713 6.66669 18.1321 6.78768 18.1321 6.96009V9.89113C18.1321 10.0454 18.2683 10.1845 18.4256 10.1845ZM18.4256 14.389H21.7014C21.8557 14.389 21.9948 14.2499 21.9948 14.0956V11.1646C21.9948 11.0103 21.8557 10.8712 21.7014 10.8712H18.4256C18.2713 10.8712 18.1321 10.9922 18.1321 11.1646V14.0956C18.1321 14.2529 18.2683 14.389 18.4256 14.389ZM13.8914 14.389H17.1672C17.3215 14.389 17.4606 14.2499 17.4606 14.0956V11.1646C17.4606 11.0103 17.3396 10.8712 17.1672 10.8712H13.8914C13.7371 10.8712 13.598 10.9922 13.598 11.1646V14.0956C13.598 14.2529 13.719 14.389 13.8914 14.389ZM9.28763 14.389H12.5635C12.7178 14.389 12.8569 14.2499 12.8569 14.0956V11.1646C12.8569 11.0103 12.7359 10.8712 12.5635 10.8712H9.28763C9.13336 10.8712 8.99422 10.9922 8.99422 11.1646V14.0956C9.01237 14.2529 9.13336 14.389 9.28763 14.389ZM18.4256 18.5784H21.7014C21.8557 18.5784 21.9948 18.4574 21.9948 18.285V15.3539C21.9948 15.1997 21.8738 15.0605 21.7014 15.0605H18.4256C18.2713 15.0605 18.1321 15.1815 18.1321 15.3539V18.285C18.1321 18.4574 18.2683 18.5784 18.4256 18.5784ZM13.8914 18.5784H17.1672C17.3215 18.5784 17.4606 18.4574 17.4606 18.285V15.3539C17.4606 15.1997 17.3396 15.0605 17.1672 15.0605H13.8914C13.7371 15.0605 13.598 15.1815 13.598 15.3539V18.285C13.598 18.4574 13.719 18.5784 13.8914 18.5784ZM9.28763 18.5784H12.5635C12.7178 18.5784 12.8569 18.4574 12.8569 18.285V15.3539C12.8569 15.1997 12.7359 15.0605 12.5635 15.0605H9.28763C9.13336 15.0605 8.99422 15.1815 8.99422 15.3539V18.285C9.01237 18.4574 9.13336 18.5784 9.28763 18.5784ZM4.7716 18.5784H8.04746C8.20172 18.5784 8.34087 18.4574 8.34087 18.285V15.3539C8.34087 15.1997 8.21987 15.0605 8.04746 15.0605H4.7716C4.61734 15.0605 4.47819 15.1815 4.47819 15.3539V18.285C4.49634 18.4574 4.61734 18.5784 4.7716 18.5784Z" fill="#191e2c"/>
</svg>
