<svg width="40" height="40" viewBox="0 0 40 40" fill="none" xmlns="http://www.w3.org/2000/svg">
<path d="M20.0058 37.8491C19.5275 37.8491 19.0533 37.7241 18.6342 37.4825L14.2675 34.8966C13.615 34.5316 13.9333 34.4025 14.1483 34.3283C15.0183 34.0241 15.1942 33.955 16.1225 33.4275C16.22 33.3716 16.3475 33.3916 16.4475 33.4508L19.8025 35.4416C19.9233 35.5075 20.0958 35.5075 20.2075 35.4416L33.2883 27.8908C33.4092 27.8216 33.4883 27.6816 33.4883 27.5375V12.4433C33.4883 12.2925 33.41 12.1583 33.2858 12.0833L20.2108 4.53831C20.09 4.46664 19.9292 4.46664 19.8083 4.53831L6.735 12.0825C6.60833 12.1541 6.5275 12.295 6.5275 12.4391V27.5341C6.5275 27.6783 6.60583 27.8158 6.73083 27.8841L10.3133 29.9533C12.2583 30.9258 13.4467 29.78 13.4467 28.6275V13.73C13.4467 13.5175 13.6133 13.3533 13.8267 13.3533H15.4833C15.69 13.3533 15.86 13.5166 15.86 13.73V28.635C15.86 31.2283 14.4458 32.7183 11.9867 32.7183C11.23 32.7183 10.6342 32.7183 8.97083 31.9L5.53917 29.9225C4.69083 29.4308 4.16667 28.5133 4.16667 27.535V12.44C4.16667 11.4575 4.69083 10.5408 5.53833 10.0558L18.6333 2.50164C19.4617 2.03331 20.5617 2.03331 21.3842 2.50164L34.4625 10.0591C35.3058 10.5466 35.8333 11.4608 35.8333 12.4433V27.5383C35.8333 28.5175 35.3058 29.4308 34.4617 29.9225L21.3833 37.4758C20.9642 37.7183 20.4892 37.8425 20.005 37.8425" fill="#191e2c"/>
<path d="M24.0467 27.4475C18.3233 27.4475 17.1233 24.82 17.1233 22.6166C17.1233 22.4075 17.2925 22.24 17.5025 22.24H19.1925C19.3792 22.24 19.5367 22.3758 19.5658 22.56C19.8208 24.2816 20.5808 25.15 24.0417 25.15C26.7983 25.15 27.9708 24.5275 27.9708 23.065C27.9708 22.2233 27.6367 21.5983 23.3542 21.1791C19.7717 20.8258 17.5583 20.0366 17.5583 17.1716C17.5583 14.5325 19.785 12.9608 23.5142 12.9608C27.7025 12.9608 29.7783 14.415 30.04 17.5383C30.05 17.6466 30.0108 17.7508 29.9383 17.83C29.8667 17.905 29.765 17.9508 29.66 17.9508H27.9608C27.7842 17.9508 27.63 17.8266 27.5942 17.6558C27.185 15.845 26.1958 15.2658 23.5075 15.2658C20.4983 15.2658 20.1483 16.3133 20.1483 17.0991C20.1483 18.0516 20.5608 18.33 24.6208 18.8675C28.6417 19.4008 30.5508 20.1541 30.5508 22.98C30.5508 25.8283 28.1733 27.4625 24.0283 27.4625" fill="#191e2c"/>
</svg>
