<svg width="40" height="40" viewBox="0 0 40 40" fill="none" xmlns="http://www.w3.org/2000/svg">
<path d="M15.4405 9.16667L12.2917 9.16667C10.5658 9.16667 9.16667 10.5658 9.16667 12.2917V26.7083C9.16667 28.4342 10.5658 29.8333 12.2917 29.8333H26.7083C28.4342 29.8333 29.8333 28.4342 29.8333 26.7083V12.2917C29.8333 10.5658 28.4342 9.16667 26.7083 9.16667L23.5595 9.16667M15.4405 9.16667V4M15.4405 9.16667H23.5595M23.5595 9.16667V4M35 15.0714H29.8333V22.4524H35M4 15.0714H9.16667L9.16667 22.4524H4M15.4405 35V29.8333M23.5595 35V29.8333" stroke="#191e2c" stroke-width="3" stroke-linecap="round" stroke-linejoin="round"/>
<path d="M15 16.875C15 15.8395 15.8395 15 16.875 15H22.125C23.1605 15 24 15.8395 24 16.875V22.125C24 23.1605 23.1605 24 22.125 24H16.875C15.8395 24 15 23.1605 15 22.125V16.875Z" stroke="#191e2c" stroke-width="3" stroke-linecap="round" stroke-linejoin="round"/>
</svg>
