<svg width="40" height="40" viewBox="0 0 40 40" fill="none" xmlns="http://www.w3.org/2000/svg">
<g clip-path="url(#clip0_20_124)">
<path d="M21.8386 28.3284L23.0423 33.2995C24.6381 33.1986 26.155 32.3263 27.0144 30.8378C28.0902 28.9745 27.8145 26.7018 26.4916 25.1547L26.1892 24.7381M12.9414 17.2311C13.3471 15.9654 13.893 14.7233 14.5847 13.5254C17.6461 8.22277 23.4195 5.26939 29.054 4.52414C31.2259 9.77643 31.5543 16.2527 28.4929 21.5553C27.823 22.7156 27.0489 23.7782 26.1892 24.7381M12.9414 17.2311L12.5257 17.0915C10.5244 16.7194 8.41842 17.617 7.34266 19.4803C6.48324 20.9688 6.48632 22.7187 7.19683 24.1511L11.1984 23.0894L12.0438 22.911M12.9414 17.2311C12.344 19.0951 12.0506 21.0102 12.0438 22.911M12.0438 22.911C12.0427 23.2246 12.0494 23.5378 12.0638 23.8503C12.1109 24.8727 12.7272 25.7667 13.6135 26.2784L17.934 28.7728C18.8203 29.2845 19.9027 29.3713 20.8117 28.9009C22.8096 27.8669 24.6386 26.4695 26.1892 24.7381" stroke="white" stroke-width="3.33333" stroke-linecap="round" stroke-linejoin="round"/>
<path d="M10.9478 35.2814C12.8113 35.035 14.7208 34.0582 15.7333 32.3044L11.1334 29.6486C10.1208 31.4024 10.2295 33.5443 10.9478 35.2814Z" stroke="white" stroke-width="3.33333" stroke-linecap="round" stroke-linejoin="round"/>
<rect x="23.3678" y="14.4061" width="0.0180556" height="0.0180556" transform="rotate(30 23.3678 14.4061)" stroke="white" stroke-width="5" stroke-linejoin="round"/>
</g>
<defs>
<clipPath id="clip0_20_124">
<rect width="40" height="40" fill="white"/>
</clipPath>
</defs>
</svg>
