<svg width="30" height="30" viewBox="0 0 30 30" fill="none" xmlns="http://www.w3.org/2000/svg">
<rect x="1.28735" y="1" width="27.2874" height="28" rx="6.91035" fill="#15171D"/>
<path d="M19.8619 10.9142C18.6812 9.92498 16.8136 9.75731 16.7336 9.75127C16.6097 9.74042 16.4915 9.8128 16.4405 9.93222C16.4359 9.93946 16.3953 10.0372 16.3501 10.1892C17.131 10.3267 18.0904 10.6029 18.9581 11.1639C19.0972 11.2531 19.14 11.4437 19.0543 11.5885C18.9975 11.6838 18.9014 11.7356 18.8017 11.7356C18.7484 11.7356 18.694 11.72 18.6453 11.6886C17.153 10.7248 15.29 10.6765 14.9309 10.6765C14.5717 10.6765 12.7075 10.7248 11.2164 11.6886C11.0773 11.7791 10.8943 11.7344 10.8085 11.5897C10.7217 11.4437 10.7645 11.2543 10.9036 11.1639C11.7713 10.6041 12.7307 10.3267 13.5116 10.1904C13.4664 10.0372 13.4258 9.94066 13.4224 9.93222C13.3702 9.8128 13.2532 9.73801 13.1281 9.75127C13.0481 9.75731 11.1805 9.92498 9.98363 10.9274C9.35914 11.5294 8.10901 15.047 8.10901 18.0881C8.10901 18.1423 8.12291 18.1942 8.1484 18.2413C9.0104 19.8191 11.3635 20.2317 11.9 20.2498C11.9023 20.2498 11.9057 20.2498 11.9092 20.2498C12.0042 20.2498 12.0934 20.2027 12.1491 20.1231L12.6913 19.3462C11.228 18.953 10.4807 18.2847 10.4378 18.2449C10.315 18.1327 10.3034 17.9373 10.4123 17.8094C10.5201 17.6815 10.7078 17.6695 10.8306 17.7817C10.8479 17.7985 12.2244 19.0145 14.9309 19.0145C17.642 19.0145 19.0184 17.7937 19.0323 17.7817C19.1551 17.6707 19.3416 17.6815 19.4506 17.8106C19.5583 17.9385 19.5467 18.1327 19.4239 18.2449C19.381 18.2847 18.6337 18.953 17.1704 19.3462L17.7127 20.1231C17.7683 20.2027 17.8575 20.2498 17.9525 20.2498C17.956 20.2498 17.9594 20.2498 17.9618 20.2498C18.4982 20.2317 20.8513 19.8191 21.7133 18.2413C21.7388 18.1942 21.7527 18.1423 21.7527 18.0881C21.7527 15.047 20.5026 11.5294 19.8619 10.9142ZM13.0029 16.8528C12.4294 16.8528 11.9648 16.3003 11.9648 15.6175C11.9648 14.9348 12.4294 14.3823 13.0029 14.3823C13.5764 14.3823 14.041 14.9348 14.041 15.6175C14.041 16.3003 13.5764 16.8528 13.0029 16.8528ZM16.8588 16.8528C16.2853 16.8528 15.8207 16.3003 15.8207 15.6175C15.8207 14.9348 16.2853 14.3823 16.8588 14.3823C17.4323 14.3823 17.8969 14.9348 17.8969 15.6175C17.8969 16.3003 17.4323 16.8528 16.8588 16.8528Z" fill="#FAFBFC"/>
<rect x="1.28735" y="1" width="27.2874" height="28" rx="6.91035" stroke="#FAFBFC"/>
</svg>
