<svg width="10" height="10" viewBox="0 0 28 28" fill="none" xmlns="http://www.w3.org/2000/svg">
<style>
    path {
      fill: #15171D;
    }
    @media (prefers-color-scheme: dark) {
      path {
        fill: white;
      }
    }
  </style>

<path d="M20 11.8H28V8.2H16.689L22.2 2.687L19.655 0.142L11.8 8V0H8.2V11.311L2.687 5.8L0.142 8.345L8 16.2H0V19.8H11.311L5.8 25.313L8.346 27.858L16.2 20V28H19.8V16.689L25.313 22.2L27.858 19.654L20 11.8ZM14 16.2C13.5649 16.2 13.1395 16.071 12.7777 15.8292C12.416 15.5875 12.134 15.2439 11.9675 14.8419C11.801 14.4399 11.7574 13.9976 11.8423 13.5708C11.9272 13.144 12.1367 12.752 12.4444 12.4444C12.752 12.1367 13.144 11.9272 13.5708 11.8423C13.9976 11.7574 14.4399 11.801 14.8419 11.9675C15.2439 12.134 15.5875 12.416 15.8292 12.7777C16.071 13.1395 16.2 13.5649 16.2 14C16.2 14.5835 15.9682 15.1431 15.5556 15.5556C15.1431 15.9682 14.5835 16.2 14 16.2Z"/>
</svg>