<svg width="29" height="30" viewBox="0 0 29 30" fill="none" xmlns="http://www.w3.org/2000/svg">
<rect x="1" y="1" width="27.2874" height="28" rx="6.91035" fill="#15171D"/>
<path fill-rule="evenodd" clip-rule="evenodd" d="M14.6491 7.99976C10.8737 7.99976 7.82166 11.2082 7.82166 15.1772C7.82166 18.35 9.77721 21.0356 12.4901 21.9863C12.8292 22.0576 12.9536 21.8318 12.9536 21.6417C12.9536 21.4753 12.9423 20.9049 12.9423 20.3107C11.0432 20.7385 10.6476 19.4552 10.6476 19.4552C10.3424 18.6233 9.89025 18.4094 9.89025 18.4094C9.26854 17.9698 9.93546 17.9698 9.93546 17.9698C10.625 18.0173 10.9867 18.7065 10.9867 18.7065C11.5971 19.7998 12.5805 19.4908 12.9762 19.3007C13.0327 18.8372 13.2136 18.5164 13.4057 18.3381C11.891 18.1718 10.2972 17.5538 10.2972 14.7969C10.2972 14.0127 10.5685 13.371 10.998 12.8719C10.9302 12.6936 10.6928 11.9569 11.0658 10.9706C11.0658 10.9706 11.6423 10.7804 12.9423 11.7073C13.4848 11.5528 14.0726 11.4696 14.6491 11.4696C15.2256 11.4696 15.8134 11.5528 16.356 11.7073C17.6559 10.7804 18.2324 10.9706 18.2324 10.9706C18.6055 11.9569 18.3681 12.6936 18.3003 12.8719C18.7411 13.371 19.0011 14.0127 19.0011 14.7969C19.0011 17.5538 17.4073 18.1599 15.8812 18.3381C16.1299 18.5639 16.3447 18.9917 16.3447 19.6691C16.3447 20.6316 16.3334 21.404 16.3334 21.6417C16.3334 21.8318 16.4577 22.0576 16.7969 21.9863C19.5098 21.0356 21.4653 18.35 21.4653 15.1772C21.4766 11.2082 18.4133 7.99976 14.6491 7.99976Z" fill="#FAFBFC"/>
<rect x="1" y="1" width="27.2874" height="28" rx="6.91035" stroke="#FAFBFC"/>
</svg>
