<svg width="40" height="40" viewBox="0 0 40 40" fill="none" xmlns="http://www.w3.org/2000/svg">
<rect x="10.0307" y="3.91528" width="18.3376" height="31.3583" rx="1.75703" stroke="white" stroke-width="2"/>
<path d="M10.0305 26.0085H27.7626V32.499C27.7626 33.4694 26.976 34.256 26.0056 34.256H11.7876C10.8172 34.256 10.0305 33.4694 10.0305 32.499V26.0085Z" fill="white" stroke="white" stroke-width="2"/>
<rect x="26.7296" y="23.8" width="0.667167" height="2.66866" rx="0.333583" transform="rotate(90 26.7296 23.8)" fill="white"/>
<path d="M29.3998 5.56372C29.7683 5.56372 30.067 5.86242 30.067 6.23089V7.56522C30.067 7.93369 29.7683 8.23239 29.3998 8.23239V5.56372Z" fill="white"/>
<path d="M29.3998 9.56665C29.7683 9.56665 30.067 9.86535 30.067 10.2338V11.5681C30.067 11.9366 29.7683 12.2353 29.3998 12.2353V9.56665Z" fill="white"/>
<path d="M29.3998 14.9041C29.7683 14.9041 30.067 15.2028 30.067 15.5712V20.9086C30.067 21.277 29.7683 21.5757 29.3998 21.5757V14.9041Z" fill="white"/>
<line x1="28.6446" y1="21.9285" x2="9.75975" y2="21.9285" stroke="white" stroke-width="2"/>
</svg>
