<svg width="29" height="30" viewBox="0 0 29 30" fill="none" xmlns="http://www.w3.org/2000/svg">
<rect x="0.862061" y="1" width="27.2874" height="28" rx="6.91035" fill="#15171D"/>
<path d="M7.82568 21.2695H10.5735V13.0869H7.82568V21.2695Z" fill="#FAFBFC"/>
<path d="M9.27497 11.8428H9.29466C10.2088 11.8428 10.7782 11.2158 10.7786 10.4309C10.7589 9.62723 10.2088 9.01953 9.30965 9.01953C8.41054 9.01953 7.82611 9.63174 7.82611 10.4309C7.82611 11.2158 8.39555 11.8428 9.27497 11.8428Z" fill="#FAFBFC"/>
<path d="M17.8683 21.2695H20.6162L20.6166 16.4891C20.6166 14.0341 19.2521 12.8954 17.4483 12.8954C15.9948 12.8954 15.3701 13.6802 14.9702 14.2256V13.0869H12.2223V21.2695H14.9702V16.6088C14.9702 16.3694 14.9903 16.1348 15.0653 15.9626C15.2652 15.4832 15.7148 14.9912 16.4743 14.9912C17.4685 14.9912 17.8683 15.7235 17.8683 16.7954V21.2695Z" fill="#FAFBFC"/>
<rect x="0.862061" y="1" width="27.2874" height="28" rx="6.91035" stroke="#FAFBFC"/>
</svg>
