<svg width="80" height="80" viewBox="0 0 80 80" fill="none" xmlns="http://www.w3.org/2000/svg">
<path d="M79.5 23.0714H48.9496L63.5392 8.48182L55.5574 0.5L34.3571 21.703V0.5H23.0714V31.0504L8.48182 16.4608L0.5 24.4426L21.703 45.6429H0.5V56.9286H31.0504L16.4608 71.5182L24.4398 79.5L45.6429 58.297V79.5H56.9286V48.9496L71.5182 63.5392L79.5 55.5602L58.297 34.3571H79.5V23.0714ZM40 45.6429C38.8839 45.6429 37.793 45.3119 36.865 44.6919C35.937 44.0718 35.2138 43.1905 34.7867 42.1594C34.3596 41.1283 34.2478 39.9937 34.4656 38.8991C34.6833 37.8045 35.2207 36.7991 36.0099 36.0099C36.7991 35.2207 37.8045 34.6833 38.8991 34.4656C39.9937 34.2478 41.1283 34.3596 42.1594 34.7867C43.1905 35.2138 44.0718 35.937 44.6919 36.865C45.3119 37.793 45.6429 38.8839 45.6429 40C45.6429 41.4966 45.0483 42.9319 43.9901 43.9901C42.9319 45.0483 41.4966 45.6429 40 45.6429Z" fill="white"/>
</svg>
