<svg width="29" height="30" viewBox="0 0 29 30" fill="none" xmlns="http://www.w3.org/2000/svg">
<rect x="0.574707" y="1" width="27.2874" height="28" rx="6.91035" fill="#15171D"/>
<path d="M15.4301 9.16382C14.4754 9.16382 13.763 9.96328 13.763 10.8728V12.4469C12.511 12.515 11.3659 12.8572 10.4519 13.3939C10.0996 13.0471 9.62796 12.8932 9.17065 12.8935C8.67482 12.8939 8.16793 13.07 7.81829 13.4732L7.81029 13.4823L7.80229 13.4914C7.46689 13.9211 7.33408 14.4968 7.42352 15.0682C7.5052 15.5901 7.80007 16.1141 8.31264 16.4573C8.30929 16.5152 8.3002 16.572 8.3002 16.6305C8.3002 18.9461 10.9551 20.8305 14.2182 20.8305C17.4813 20.8305 20.1362 18.9461 20.1362 16.6305C20.1362 16.572 20.1271 16.5152 20.1238 16.4573C20.6363 16.1141 20.9312 15.5901 21.0129 15.0682C21.1023 14.4968 20.9695 13.9211 20.6341 13.4914L20.6261 13.4823L20.6181 13.4732C20.2684 13.07 19.7616 12.8939 19.2658 12.8935C18.8084 12.8932 18.3367 13.047 17.9845 13.3939C17.0705 12.8572 15.9255 12.515 14.6734 12.4469V10.8728C14.6734 10.4159 14.9307 10.0972 15.4301 10.0972C15.6671 10.0972 15.9559 10.2189 16.4081 10.3815C16.7904 10.519 17.288 10.6579 17.9241 10.6996C18.0762 11.1607 18.4987 11.4972 18.9981 11.4972C19.6241 11.4972 20.1362 10.9722 20.1362 10.3305C20.1362 9.68882 19.6241 9.16382 18.9981 9.16382C18.5708 9.16382 18.2004 9.41135 18.0059 9.77085C17.4621 9.73998 17.0626 9.62802 16.7095 9.50106C16.2981 9.35311 15.9201 9.16382 15.4301 9.16382ZM9.17065 13.8268C9.35053 13.8267 9.52143 13.8751 9.66233 13.9535C9.15976 14.3836 8.77845 14.886 8.54826 15.4347C8.42604 15.28 8.35239 15.1064 8.32331 14.9206C8.27426 14.6071 8.36576 14.2813 8.51092 14.0884C8.64809 13.9371 8.89858 13.827 9.17065 13.8268ZM19.2649 13.8268C19.537 13.827 19.7884 13.9371 19.9255 14.0884C20.0706 14.2813 20.1622 14.6071 20.1131 14.9206C20.084 15.1064 20.0104 15.28 19.8881 15.4347C19.658 14.886 19.2766 14.3836 18.7741 13.9535C18.9147 13.8752 19.0851 13.8267 19.2649 13.8268ZM11.942 14.7638C12.4451 14.7638 12.8525 15.1815 12.8525 15.6972C12.8525 16.2128 12.4451 16.6305 11.942 16.6305C11.439 16.6305 11.0316 16.2128 11.0316 15.6972C11.0316 15.1815 11.439 14.7638 11.942 14.7638ZM16.4944 14.7638C16.9974 14.7638 17.4048 15.1815 17.4048 15.6972C17.4048 16.2128 16.9974 16.6305 16.4944 16.6305C15.9913 16.6305 15.5839 16.2128 15.5839 15.6972C15.5839 15.1815 15.9913 14.7638 16.4944 14.7638ZM16.6028 17.346C16.3119 18.2172 15.3818 18.9638 14.2182 18.9638C13.0546 18.9638 12.1245 18.2176 11.8336 17.4089C12.3571 17.8443 13.2294 18.1554 14.2182 18.1554C15.207 18.1554 16.0793 17.8439 16.6028 17.346Z" fill="#FAFBFC"/>
<rect x="0.574707" y="1" width="27.2874" height="28" rx="6.91035" stroke="#FAFBFC"/>
</svg>
