<svg width="40" height="40" viewBox="0 0 40 40" fill="none" xmlns="http://www.w3.org/2000/svg">
<path d="M19.9118 20.1758C15.8706 20.1758 12.1988 20.6719 9.48053 21.4804V28.3863C12.1988 29.1948 15.8706 29.6909 19.9118 29.6909C24.5372 29.6909 28.6781 29.0411 31.4595 28.0168V21.85C28.6781 20.8257 24.5372 20.1758 19.9118 20.1758Z" fill="#FAFBFC"/>
<path d="M35.6256 25.7871L35.1519 24.785C35.1543 24.747 35.1563 24.7089 35.1563 24.6707C35.1563 23.5347 33.9994 22.4877 32.053 21.6495V27.6918C32.9612 27.3007 33.698 26.8642 34.2249 26.3942C34.0698 27.0309 33.5394 28.3191 33.1166 29.2249C32.4216 30.5205 32.1699 31.6484 32.2022 31.7043C32.2227 31.7394 32.4598 31.3659 32.8095 30.7607C33.6231 29.5769 35.1649 27.3169 35.4731 26.7412C35.8222 26.0886 35.6256 25.7871 35.6256 25.7871Z" fill="#FAFBFC"/>
<path d="M4.96957 24.7369C4.96957 24.9557 5.01267 25.1712 5.09583 25.3826L4.81213 25.8982C4.81213 25.8982 4.58487 26.1993 4.98507 26.8345C5.33807 27.3945 7.10623 29.5869 8.03947 30.735C8.44033 31.3235 8.7121 31.6861 8.7359 31.6511C8.77337 31.5955 8.4867 30.4904 7.6906 29.2297C7.31913 28.5526 6.87547 27.6555 6.6092 26.9928C7.35263 27.4733 8.3253 27.9091 9.48093 28.2841V21.1898C6.69613 22.0934 4.96957 23.3488 4.96957 24.7369Z" fill="#FAFBFC"/>
<path d="M19.4582 9.54783L18.5286 11.1251C18.378 11.1387 18.2274 11.1524 18.0768 11.1661L16.8748 9.80829C16.7615 9.66416 16.5793 9.6035 16.4057 9.64501C16.2322 9.68652 16.0923 9.82791 16.0299 9.98801L15.4188 11.7422C15.2704 11.7814 15.1219 11.8207 15.0007 11.8831L13.567 10.778C13.4329 10.6872 13.2278 10.6544 13.0814 10.7192C12.9122 10.8118 12.7974 10.9509 12.7623 11.1342L12.4632 12.9888C12.342 13.0513 12.2229 13.1393 12.0766 13.2041L10.4952 12.4469C10.3359 12.3585 10.1351 12.3767 9.99312 12.4926C9.84896 12.5829 9.76361 12.7708 9.75356 12.9519L9.8102 14.8256C9.71624 14.9113 9.59934 15.0249 9.48028 15.1129L7.7762 14.7015C7.59402 14.6409 7.42261 14.7079 7.28275 14.8493C7.16585 14.9629 7.10775 15.174 7.14791 15.3506L7.55382 17.1668C7.46202 17.2781 7.37022 17.3894 7.28056 17.5262L5.50404 17.456C5.32617 17.4464 5.15691 17.539 5.06941 17.7014C4.98191 17.8637 4.94891 18.0726 5.03927 18.2446L5.76292 19.929C5.67326 20.0658 5.60871 20.2004 5.54416 20.3349L3.82501 20.6455C3.62419 20.6638 3.48433 20.8052 3.42193 20.9653C3.36168 21.1509 3.37889 21.3553 3.46711 21.5017L4.50417 23.0032C4.48122 23.031 4.48337 23.0565 4.48552 23.0821L1.56357 26.2302C1.56357 26.2302 1.13754 26.5777 1.76508 27.4215C2.33167 28.1422 5.25713 31.0421 6.80269 32.5746C7.44889 33.3395 7.89355 33.8138 7.9416 33.7837C8.01046 33.7002 7.63896 32.2927 6.36307 30.6585C5.37836 29.1779 4.09889 26.9006 4.38076 26.6434C4.38076 26.6434 4.72288 26.2005 5.42933 25.8789C5.40208 25.8557 5.40208 25.8557 5.42933 25.8789C5.42933 25.8789 19.9384 32.6679 33.4098 25.9361C34.9532 25.6414 35.8842 26.4834 35.8842 26.4834C36.2048 26.6859 35.3649 29.0271 34.6864 30.5816C33.7468 32.3399 33.6098 33.7164 33.6894 33.7606C33.7418 33.7816 34.0774 33.2621 34.563 32.4201C35.7622 30.7412 37.9956 27.527 38.4102 26.7429C38.8914 25.8498 38.4138 25.5844 38.4138 25.5844L35.3097 23.2669C35.276 23.1671 35.2423 23.0672 35.2316 22.9395L36.2428 21.432C36.3576 21.2929 36.3655 21.0863 36.3002 20.912C36.235 20.7378 36.0987 20.6215 35.9187 20.5864L34.173 20.2817C34.112 20.1586 34.0489 20.0099 33.988 19.8867L34.7038 18.1745C34.7913 18.0121 34.7741 17.8078 34.6586 17.6381C34.5704 17.4917 34.4112 17.4032 34.2354 17.4192L32.4697 17.4767C32.3836 17.3558 32.2724 17.2372 32.1864 17.1164L32.5902 15.3038C32.6253 15.1204 32.583 14.9184 32.4719 14.7998C32.3334 14.6579 32.1513 14.5973 31.9777 14.6388L30.2693 15.0771C30.1603 14.9841 30.0513 14.891 29.9401 14.7724L29.986 12.9152C29.9961 12.7341 29.9057 12.5621 29.7694 12.4458C29.6081 12.3318 29.4302 12.3222 29.2609 12.4148L27.6809 13.1761C27.549 13.1109 27.4148 13.0201 27.2829 12.9549L27.0025 11.1273C26.9853 10.9229 26.8468 10.7811 26.6898 10.7181C26.5306 10.6296 26.3297 10.6479 26.1877 10.7637L24.7612 11.8457C24.6314 11.806 24.5016 11.7663 24.3466 11.7289L23.7442 9.982C23.6789 9.80777 23.5405 9.66592 23.3605 9.63081C23.1805 9.59569 23.0091 9.66274 22.8692 9.80413L21.6693 11.1743C21.5416 11.1602 21.3867 11.1228 21.234 11.1109L20.3181 9.54691C20.2277 9.37496 20.0685 9.28647 19.8906 9.2769C19.7128 9.26732 19.5457 9.38546 19.4582 9.54783Z" fill="#FDFDFD"/>
<path d="M15.0118 30.1654C14.9563 30.1171 14.9273 30.0884 14.9273 30.0884L19.6787 29.691C15.8029 24.4701 12.6979 28.6291 12.3674 29.0941V30.1654H15.0118Z" fill="black"/>
<path d="M24.9043 30.1092C24.9598 30.0608 24.9889 30.0321 24.9889 30.0321L20.4227 29.691C24.3003 24.2558 27.2184 28.5728 27.5488 29.0378V30.1092H24.9043Z" fill="black"/>
<path d="M32.2023 24.9259C32.2023 24.9259 31.6857 27.0359 28.4524 29.255L27.5528 29.4733C27.5528 29.4733 24.6224 24.0164 20.4717 30.1645C20.4717 30.1645 21.7632 29.4005 25.2281 30.3373C25.2281 30.3373 23.6337 32.8293 20.4272 32.7474C20.4272 32.7474 23.5001 36.5218 28.1852 31.074C28.1852 31.074 33.1375 29.1186 33.5383 24.9259L32.2023 24.9259Z" fill="#FAFBFC"/>
<path d="M22.5808 22.2209C22.5808 22.2209 24.0303 20.6003 25.4799 22.2209C25.4799 22.2209 26.6189 24.3819 25.4799 25.4623C25.4799 25.4623 23.6162 26.975 22.5808 25.4623C22.5808 25.4623 21.3383 24.2737 22.5808 22.2209Z" fill="black"/>
<path d="M24.2581 22.8222C24.2581 23.4532 23.8938 23.9648 23.4445 23.9648C22.9953 23.9648 22.631 23.4532 22.631 22.8222C22.631 22.1911 22.9953 21.6794 23.4445 21.6794C23.8938 21.6794 24.2581 22.1911 24.2581 22.8222Z" fill="#FAFBFC"/>
<path d="M16.1104 21.7784C16.1104 21.7784 18.597 20.6543 19.2756 23.1634C19.2756 23.1634 19.9865 26.088 17.2337 26.253C17.2337 26.253 13.7233 25.5627 16.1104 21.7784Z" fill="black"/>
<path d="M17.3597 22.8635C17.3597 23.5142 16.984 24.0421 16.5206 24.0421C16.0573 24.0421 15.6816 23.5142 15.6816 22.8635C15.6816 22.2126 16.0573 21.6849 16.5206 21.6849C16.984 21.6849 17.3597 22.2126 17.3597 22.8635Z" fill="#FAFBFC"/>
<path d="M12.3781 31.4147C16.9195 37.3617 19.0707 32.5862 19.0707 32.5862C16.5211 32.2933 14.7125 30.5605 14.7125 30.5605C17.772 30.1619 19.5408 30.1293 19.5408 30.1293C15.4455 24.6136 12.1232 29.6087 12.1232 29.6087C11.2945 29.2995 10.442 28.1199 9.81262 27.0298L7.27103 26.2651C10.1951 31.3415 12.3781 31.4147 12.3781 31.4147Z" fill="#FAFBFC"/>
</svg>
