<svg width="40" height="40" viewBox="0 0 40 40" fill="none" xmlns="http://www.w3.org/2000/svg">
<path d="M20 12.0588H22.3214C23.0118 12.0588 23.5714 11.4992 23.5714 10.8088V6.25C23.5714 5.55964 23.0118 5 22.3214 5H17.6786C16.9882 5 16.4286 5.55964 16.4286 6.25V10.8088C16.4286 11.4992 16.9882 12.0588 17.6786 12.0588H20ZM20 12.0588V14.8824M20 14.8824H9.46429C8.77393 14.8824 8.21429 15.442 8.21429 16.1324V17.7059M20 14.8824V17.7059M20 14.8824H30.1786C30.8689 14.8824 31.4286 15.442 31.4286 16.1324V17.7059M8.21429 17.7059H6.42857C5.63959 17.7059 5 18.338 5 19.1176V23.3529C5 24.1326 5.63959 24.7647 6.42857 24.7647H10.7143C11.5033 24.7647 12.1429 24.1326 12.1429 23.3529V19.1176C12.1429 18.338 11.5033 17.7059 10.7143 17.7059H8.21429ZM20 17.7059H17.8571C17.0682 17.7059 16.4286 18.338 16.4286 19.1176V23.3529C16.4286 24.1326 17.0682 24.7647 17.8571 24.7647H22.1429C22.9318 24.7647 23.5714 24.1326 23.5714 23.3529V19.1176C23.5714 18.338 22.9318 17.7059 22.1429 17.7059H20ZM31.4286 17.7059H29.2857C28.4967 17.7059 27.8571 18.338 27.8571 19.1176V23.3529C27.8571 24.1326 28.4967 24.7647 29.2857 24.7647H31.4286M31.4286 17.7059H33.5714C34.3604 17.7059 35 18.338 35 19.1176V23.3529C35 24.1326 34.3604 24.7647 33.5714 24.7647H31.4286M31.4286 24.7647V27.9412M31.4286 27.9412H29.2857C28.4967 27.9412 27.8571 28.5732 27.8571 29.3529V33.5882C27.8571 34.3679 28.4967 35 29.2857 35H33.5714C34.3604 35 35 34.3679 35 33.5882V29.3529C35 28.5732 34.3604 27.9412 33.5714 27.9412H31.4286Z" stroke="white" stroke-width="2.25"/>
</svg>
